<svg width="1311" height="1439" xmlns="http://www.w3.org/2000/svg" xmlns:xlink="http://www.w3.org/1999/xlink" xml:space="preserve" overflow="hidden"><g transform="translate(-1524 -492)"><path d="M2518.87 892.5 2534.28 906.51C2619.06 991.314 2671.5 1108.47 2671.5 1237.88 2671.5 1496.69 2461.75 1706.5 2203 1706.5 1944.25 1706.5 1734.5 1496.69 1734.5 1237.88 1734.5 1140.82 1764 1050.66 1814.51 975.865L1818.87 970.03 2255.5 1698.67Z" stroke="#F2F2F2" stroke-width="6.875" stroke-miterlimit="8" fill="#F2F2F2" fill-rule="evenodd"/><path d="M2619.52 582.631 2254.99 1698.18 1734.06 829.099Z" stroke="#000000" stroke-width="6.875" stroke-miterlimit="8" fill="none" fill-rule="evenodd"/><path d="M1734.5 1238C1734.5 979.255 1944.25 769.5 2203 769.5 2461.75 769.5 2671.5 979.255 2671.5 1238 2671.5 1496.75 2461.75 1706.5 2203 1706.5 1944.25 1706.5 1734.5 1496.75 1734.5 1238Z" stroke="#000000" stroke-width="6.875" stroke-miterlimit="8" fill="none" fill-rule="evenodd"/><path d="M2200 594 2200 1823.41" stroke="#767171" stroke-width="2.29167" stroke-miterlimit="8" stroke-dasharray="18.3333 6.875" fill="none" fill-rule="evenodd"/><path d="M0 0 1208.27 0.000360892" stroke="#767171" stroke-width="2.29167" stroke-miterlimit="8" stroke-dasharray="18.3333 6.875" fill="none" fill-rule="evenodd" transform="matrix(-1 0 0 1 2804.27 1236)"/><path d="M2307.77 1173.84C2306.66 1173.8 2305.22 1174.11 2303.44 1174.79 2301.67 1175.46 2299.65 1176.77 2297.39 1178.71 2296.16 1179.7 2294.88 1181.01 2293.54 1182.61 2292.2 1184.22 2291.26 1185.9 2290.74 1187.67L2284.46 1212.77C2284.28 1213.52 2284.17 1214.06 2284.13 1214.37 2284.09 1214.68 2284.07 1214.82 2284.08 1214.81 2284.05 1215.2 2284.29 1216.3 2284.82 1218.11 2285.35 1219.92 2286.35 1221.7 2287.81 1223.43 2289.28 1225.16 2291.41 1226.08 2294.19 1226.21 2296.63 1226.22 2299.22 1225.14 2301.96 1222.98 2304.7 1220.81 2307.19 1217.49 2309.43 1213.02 2310.24 1211.29 2311.14 1208.79 2312.15 1205.5 2313.15 1202.21 2314.03 1198.78 2314.78 1195.19 2315.53 1191.61 2315.92 1188.5 2315.96 1185.88 2315.94 1182.07 2315.21 1179.12 2313.78 1177.03 2312.35 1174.93 2310.35 1173.87 2307.77 1173.84ZM2279.85 1171.04C2282.33 1171.01 2284.68 1171.74 2286.91 1173.24 2289.14 1174.74 2290.63 1177.2 2291.38 1180.63 2293.52 1178.04 2296.05 1175.82 2298.95 1173.96 2301.85 1172.1 2304.91 1171.13 2308.15 1171.04 2313.11 1171.14 2317.17 1173.05 2320.3 1176.76 2323.44 1180.48 2325.06 1185.39 2325.16 1191.51 2325.06 1197.9 2323.49 1203.93 2320.47 1209.6 2317.44 1215.27 2313.59 1219.89 2308.92 1223.47 2304.24 1227.05 2299.38 1228.9 2294.32 1229.01 2291.08 1228.9 2288.51 1228 2286.61 1226.31 2284.71 1224.62 2283.35 1222.8 2282.54 1220.83 2282.29 1221.73 2281.84 1223.44 2281.18 1225.97 2280.53 1228.49 2279.82 1231.26 2279.07 1234.26 2278.31 1237.26 2277.67 1239.92 2277.12 1242.23 2276.58 1244.55 2276.29 1245.95 2276.27 1246.43 2276.13 1247.02 2276.4 1247.51 2277.07 1247.89 2277.73 1248.27 2279.6 1248.47 2282.67 1248.48 2283.58 1248.45 2284.32 1248.51 2284.88 1248.66 2285.44 1248.8 2285.73 1249.21 2285.74 1249.88 2285.69 1251.11 2285.38 1251.85 2284.83 1252.11 2284.28 1252.38 2283.81 1252.49 2283.44 1252.43 2281.38 1252.42 2279.28 1252.35 2277.15 1252.24 2275.01 1252.13 2272.88 1252.07 2270.76 1252.05 2268.97 1252.07 2267.16 1252.13 2265.35 1252.24 2263.54 1252.35 2261.76 1252.42 2260.02 1252.43 2259.51 1252.43 2259.1 1252.31 2258.81 1252.05 2258.52 1251.8 2258.37 1251.41 2258.36 1250.9 2258.39 1249.74 2258.69 1249.04 2259.26 1248.78 2259.83 1248.53 2260.51 1248.43 2261.3 1248.48 2263.99 1248.54 2265.72 1248.2 2266.49 1247.49 2267.25 1246.77 2267.83 1245.35 2268.21 1243.23L2282.54 1186.26C2282.8 1185.22 2283.02 1184.23 2283.18 1183.28 2283.35 1182.34 2283.43 1181.16 2283.44 1179.73 2283.41 1177.36 2283.02 1175.77 2282.27 1174.96 2281.52 1174.16 2280.59 1173.78 2279.47 1173.84 2277.2 1173.91 2275.34 1175.31 2273.88 1178.05 2272.43 1180.79 2271.17 1184.47 2270.12 1189.08 2269.78 1190.43 2269.48 1191.28 2269.23 1191.61 2268.98 1191.94 2268.55 1192.08 2267.95 1192.02 2267.89 1192.05 2267.64 1192 2267.19 1191.86 2266.74 1191.73 2266.49 1191.36 2266.43 1190.74 2266.43 1190.55 2266.6 1189.74 2266.94 1188.32 2267.28 1186.9 2267.74 1185.26 2268.33 1183.39 2268.92 1181.53 2269.61 1179.84 2270.38 1178.32 2270.91 1177.01 2271.9 1175.51 2273.34 1173.82 2274.78 1172.13 2276.95 1171.2 2279.85 1171.04Z" fill-rule="evenodd"/><text fill="#000000" fill-opacity="0" font-family="Arial,Arial_MSFontService,sans-serif" font-size="81.4064" x="2258.36" y="1242.27">𝑝</text><path d="M2708.95 554.823C2713.55 554.889 2717.2 555.938 2719.9 557.97 2722.6 560.003 2723.98 562.621 2724.04 565.826 2723.97 568.404 2723.24 570.406 2721.85 571.834 2720.46 573.261 2718.8 573.985 2716.88 574.007 2715.62 574.012 2714.53 573.65 2713.6 572.92 2712.68 572.191 2712.19 571.061 2712.15 569.533 2712.12 569.054 2712.25 568.351 2712.53 567.424 2712.82 566.497 2713.46 565.539 2714.45 564.548 2715.34 563.691 2716.25 563.169 2717.17 562.982 2718.09 562.796 2719.06 562.721 2720.07 562.759 2719.11 561.028 2717.59 559.739 2715.54 558.891 2713.48 558.043 2711.33 557.62 2709.08 557.623 2705.49 557.701 2702.1 558.924 2698.89 561.293 2695.69 563.662 2693.07 566.707 2691.02 570.428 2689.56 573.144 2688.32 576.143 2687.29 579.425 2686.26 582.707 2685.47 585.84 2684.93 588.824 2684.38 591.807 2684.11 594.21 2684.1 596.032 2684.08 599.976 2684.99 603.262 2686.84 605.893 2688.69 608.523 2691.62 609.889 2695.63 609.991 2696.24 610.069 2697.93 609.912 2700.7 609.521 2703.47 609.13 2706.72 608.034 2710.44 606.234 2714.16 604.434 2717.76 601.461 2721.23 597.313 2721.59 596.811 2721.88 596.47 2722.1 596.289 2722.32 596.107 2722.59 596.022 2722.89 596.032 2723.29 596.054 2723.64 596.235 2723.94 596.577 2724.25 596.918 2724.41 597.292 2724.42 597.697 2724.4 598.367 2723.25 599.899 2720.96 602.293 2718.67 604.687 2715.36 606.996 2711.04 609.219 2706.72 611.442 2701.5 612.633 2695.37 612.791 2688.68 612.61 2683.56 610.447 2680.02 606.3 2676.47 602.154 2674.68 597.11 2674.65 591.166 2674.75 585.034 2676.43 579.218 2679.7 573.72 2682.96 568.221 2687.18 563.726 2692.37 560.233 2697.55 556.74 2703.08 554.937 2708.95 554.823Z" fill-rule="evenodd"/><text fill="#000000" fill-opacity="0" font-family="Arial,Arial_MSFontService,sans-serif" font-size="57.968" x="2674.65" y="605.545">𝑐</text><path d="M2750.23 589.706C2755.68 589.706 2759.8 590.9 2762.58 593.288 2765.36 595.676 2766.75 599.14 2766.75 603.681 2766.75 605.234 2766.6 606.662 2766.29 607.966 2765.99 609.269 2765.5 610.558 2764.84 611.833 2764.18 613.107 2763.3 614.477 2762.18 615.942 2761.07 617.407 2759.84 618.893 2758.49 620.402 2757.14 621.911 2754.82 624.423 2751.51 627.939 2745.94 633.827 2741.85 638.969 2739.24 643.364L2755.81 643.364C2757.25 643.364 2758.4 643.276 2759.28 643.1 2760.16 642.924 2760.87 642.631 2761.39 642.221 2761.92 641.811 2762.34 641.276 2762.65 640.617 2762.95 639.958 2763.34 638.94 2763.81 637.563L2767.55 637.563 2766.8 650.395 2730.63 650.395 2730.63 648.285C2731.89 645.209 2733.59 642.06 2735.73 638.837 2737.87 635.615 2740.9 631.821 2744.83 627.455 2748.22 623.705 2750.67 620.864 2752.16 618.93 2753.8 616.821 2755.03 614.997 2755.83 613.459 2756.64 611.921 2757.22 610.471 2757.57 609.108 2757.92 607.746 2758.1 606.376 2758.1 604.999 2758.1 602.802 2757.75 600.861 2757.04 599.177 2756.34 597.492 2755.26 596.166 2753.81 595.2 2752.36 594.233 2750.54 593.749 2748.34 593.749 2742.86 593.749 2739.17 596.796 2737.27 602.89L2731.95 602.89 2731.95 594.452C2735.49 592.783 2738.81 591.574 2741.9 590.827 2744.99 590.08 2747.77 589.706 2750.23 589.706Z" fill-rule="evenodd"/><text fill="#000000" fill-opacity="0" font-family="Arial,Arial_MSFontService,sans-serif" font-size="60.6885" x="2730.63" y="642.809">2</text><path d="M1619.84 779.27C1624.44 779.336 1628.09 780.385 1630.79 782.418 1633.49 784.45 1634.87 787.069 1634.93 790.273 1634.86 792.851 1634.13 794.854 1632.74 796.281 1631.35 797.708 1629.69 798.433 1627.77 798.454 1626.51 798.459 1625.42 798.097 1624.49 797.367 1623.57 796.638 1623.09 795.509 1623.04 793.98 1623.01 793.501 1623.14 792.798 1623.42 791.871 1623.71 790.945 1624.35 789.986 1625.34 788.995 1626.23 788.138 1627.14 787.616 1628.06 787.43 1628.98 787.243 1629.95 787.169 1630.97 787.206 1630 785.475 1628.48 784.186 1626.43 783.338 1624.37 782.49 1622.22 782.067 1619.97 782.07 1616.38 782.148 1612.99 783.372 1609.79 785.74 1606.58 788.109 1603.96 791.154 1601.91 794.875 1600.45 797.591 1599.21 800.59 1598.18 803.872 1597.15 807.154 1596.36 810.287 1595.82 813.271 1595.27 816.255 1595 818.658 1594.99 820.48 1594.97 824.423 1595.88 827.71 1597.73 830.34 1599.58 832.971 1602.51 834.336 1606.52 834.438 1607.13 834.516 1608.82 834.36 1611.59 833.968 1614.36 833.577 1617.61 832.481 1621.33 830.682 1625.05 828.882 1628.65 825.908 1632.12 821.76 1632.48 821.259 1632.77 820.917 1633 820.736 1633.22 820.554 1633.48 820.469 1633.78 820.48 1634.18 820.501 1634.53 820.682 1634.83 821.024 1635.14 821.365 1635.3 821.739 1635.31 822.144 1635.29 822.815 1634.14 824.347 1631.85 826.741 1629.56 829.134 1626.26 831.443 1621.93 833.666 1617.61 835.889 1612.39 837.08 1606.26 837.238 1599.57 837.057 1594.46 834.894 1590.91 830.748 1587.36 826.602 1585.57 821.557 1585.54 815.614 1585.64 809.481 1587.32 803.666 1590.59 798.167 1593.85 792.668 1598.08 788.173 1603.26 784.68 1608.45 781.188 1613.97 779.384 1619.84 779.27Z" fill-rule="evenodd"/><text fill="#000000" fill-opacity="0" font-family="Arial,Arial_MSFontService,sans-serif" font-size="57.968" x="1585.54" y="829.992">𝑐</text><path d="M1664.24 814.154 1666.66 814.154C1666.48 816.966 1666.4 820.863 1666.4 825.843L1666.4 863.372C1666.4 865.072 1666.49 866.353 1666.68 867.218 1666.87 868.082 1667.21 868.785 1667.69 869.327 1668.18 869.869 1668.87 870.294 1669.78 870.601 1670.69 870.909 1671.83 871.143 1673.21 871.305 1674.58 871.466 1676.4 871.576 1678.66 871.634L1678.66 874.842 1646.18 874.842 1646.18 871.634C1649.43 871.488 1651.75 871.29 1653.15 871.041 1654.54 870.792 1655.6 870.418 1656.33 869.92 1657.06 869.422 1657.6 868.719 1657.94 867.811 1658.27 866.903 1658.44 865.423 1658.44 863.372L1658.44 827.733C1658.44 826.561 1658.24 825.704 1657.83 825.162 1657.42 824.62 1656.82 824.349 1656.02 824.349 1655.09 824.349 1653.75 824.832 1652.03 825.799 1650.3 826.766 1648.16 828.099 1645.61 829.798L1643.68 826.414Z" fill-rule="evenodd"/><text fill="#000000" fill-opacity="0" font-family="Arial,Arial_MSFontService,sans-serif" font-size="60.6885" x="1643.68" y="867.256">1</text><path d="M2299.07 1773.51C2303.67 1773.57 2307.32 1774.62 2310.02 1776.65 2312.72 1778.69 2314.1 1781.31 2314.16 1784.51 2314.09 1787.09 2313.36 1789.09 2311.97 1790.52 2310.58 1791.95 2308.92 1792.67 2307 1792.69 2305.74 1792.7 2304.65 1792.33 2303.72 1791.6 2302.8 1790.87 2302.31 1789.75 2302.27 1788.22 2302.24 1787.74 2302.37 1787.04 2302.65 1786.11 2302.94 1785.18 2303.58 1784.22 2304.57 1783.23 2305.46 1782.38 2306.37 1781.85 2307.29 1781.67 2308.21 1781.48 2309.18 1781.41 2310.19 1781.44 2309.23 1779.71 2307.71 1778.42 2305.66 1777.57 2303.6 1776.73 2301.45 1776.3 2299.2 1776.31 2295.61 1776.39 2292.22 1777.61 2289.01 1779.98 2285.81 1782.35 2283.19 1785.39 2281.14 1789.11 2279.68 1791.83 2278.44 1794.83 2277.41 1798.11 2276.38 1801.39 2275.59 1804.52 2275.05 1807.51 2274.5 1810.49 2274.23 1812.89 2274.22 1814.72 2274.2 1818.66 2275.11 1821.95 2276.96 1824.58 2278.81 1827.21 2281.74 1828.57 2285.75 1828.67 2286.36 1828.75 2288.05 1828.6 2290.82 1828.21 2293.59 1827.81 2296.84 1826.72 2300.56 1824.92 2304.28 1823.12 2307.88 1820.14 2311.35 1816 2311.71 1815.5 2312 1815.15 2312.22 1814.97 2312.45 1814.79 2312.71 1814.71 2313.01 1814.72 2313.41 1814.74 2313.76 1814.92 2314.06 1815.26 2314.37 1815.6 2314.53 1815.98 2314.54 1816.38 2314.52 1817.05 2313.37 1818.58 2311.08 1820.98 2308.79 1823.37 2305.48 1825.68 2301.16 1827.9 2296.84 1830.13 2291.62 1831.32 2285.49 1831.47 2278.8 1831.29 2273.68 1829.13 2270.14 1824.98 2266.59 1820.84 2264.8 1815.79 2264.77 1809.85 2264.87 1803.72 2266.55 1797.9 2269.82 1792.4 2273.08 1786.91 2277.3 1782.41 2282.49 1778.92 2287.68 1775.42 2293.2 1773.62 2299.07 1773.51Z" fill-rule="evenodd"/><text fill="#000000" fill-opacity="0" font-family="Arial,Arial_MSFontService,sans-serif" font-size="57.968" x="2264.77" y="1824.23">𝑐</text><path d="M2595.5 587C2595.5 576.23 2604.23 567.5 2615 567.5 2625.77 567.5 2634.5 576.23 2634.5 587 2634.5 597.769 2625.77 606.5 2615 606.5 2604.23 606.5 2595.5 597.769 2595.5 587Z" stroke="#000000" stroke-width="4.58333" stroke-miterlimit="8" fill-rule="evenodd"/><path d="M1720.5 832C1720.5 821.231 1729.23 812.5 1740 812.5 1750.77 812.5 1759.5 821.231 1759.5 832 1759.5 842.77 1750.77 851.5 1740 851.5 1729.23 851.5 1720.5 842.77 1720.5 832Z" stroke="#000000" stroke-width="4.58333" stroke-miterlimit="8" fill-rule="evenodd"/><path d="M2237.5 1707C2237.5 1696.23 2246.23 1687.5 2257 1687.5 2267.77 1687.5 2276.5 1696.23 2276.5 1707 2276.5 1717.77 2267.77 1726.5 2257 1726.5 2246.23 1726.5 2237.5 1717.77 2237.5 1707Z" stroke="#000000" stroke-width="4.58333" stroke-miterlimit="8" fill-rule="evenodd"/><path d="M2197.32 1237.74 2113.48 563.212 2120.3 562.364 2204.14 1236.89ZM2116.89 562.79 2105.51 582.679 2113.5 535.5 2132.8 579.288Z" fill="#DA0000"/><path d="M2200.5 1235.5 2258.08 1708.16" stroke="#DA0000" stroke-width="4.58333" stroke-miterlimit="8" stroke-dasharray="4.58333 4.58333" fill="none" fill-rule="evenodd"/><path d="M2.89626-1.85151 402.534 623.287 396.742 626.99-2.89626 1.85151ZM399.637 625.137 401.347 602.284 414.449 648.307 378.177 617.096Z" fill="#DA0000" transform="matrix(-1 0 0 1 2196.95 1239.5)"/><path d="M2204.77 1235.92 2737.56 1704.75 2733.02 1709.91 2200.23 1241.08ZM2735.29 1707.33 2730.61 1684.9 2755.94 1725.5 2712.45 1705.54Z" fill="#DA0000"/><path d="M0 0 414.219 648.828" stroke="#DA0000" stroke-width="4.58333" stroke-miterlimit="8" stroke-dasharray="4.58333 4.58333" fill="none" fill-rule="evenodd" transform="matrix(-1 0 0 1 2615.72 586.5)"/><path d="M2200.55 1236.55 1742.5 833.5" stroke="#DA0000" stroke-width="4.58333" stroke-miterlimit="8" stroke-dasharray="4.58333 4.58333" fill="none" fill-rule="evenodd"/><path d="M2200.5 1210.5 2200.5 1262.47" stroke="#000000" stroke-width="6.875" stroke-miterlimit="8" fill="none" fill-rule="evenodd"/><path d="M2174.5 1236.5 2226.47 1236.5" stroke="#000000" stroke-width="6.875" stroke-miterlimit="8" fill="none" fill-rule="evenodd"/></g></svg>